<svg xmlns="http://www.w3.org/2000/svg" xmlns:xlink="http://www.w3.org/1999/xlink" version="1.1" id="Layer_1" x="0" y="0" viewBox="0 0 417.5 88.2" enable-background="new 0 0 417.5 88.2" xml:space="preserve"><path fill="#424242" d="M277.6 88.2c-7.3 0-14.7 0.1-22 0.1 -85.2 0-170.4 0-255.6 0C0 65.5 0 42.7 0 20c4.9 0.3 9.8 0.4 14.7 0.8 3 0.2 5.9 0.8 8.9 1.1 2.3 0.2 4.9 1.1 6.7 0.3 1.9-0.8 3.5-1.1 5.4-1 1.7 0 3.3 0.2 5 0.3 1.6 0.1 3.3 0.1 4.9 0.1 2.1-0.4 4.1 0.2 6.1 0.4 0.6 0.1 1.2 0.3 1.8 0l0 0c1.1-0.3 2.1-0.5 3.1 0.2 0.7 0.5 1.5 0.3 2.2 0.3 1.6-0.2 3.3 0 4.9-0.4 1.7-0.3 3.4 0.3 5.1 0.3 1.4-0.1 2.8-0.3 4.2 0.1 2.4-0.1 4.7 0.4 7 0.4 2.4 0.6 4.8 1 7.4 0.6 2.4-0.3 4.9 0.3 7.3 0.7 2.5 0.4 5.1 0.6 7.6 0.8 2.7 0.2 5.3 0.9 7.9 1.3 2.1 0.4 4.1 0.5 6.2 0.7 0.2 0 0.5 0 0.7 0 5.8 1.2 11.6 2.1 17.4 3.7 5.5 1.5 10.6 4.1 16.4 4.7 0.8 0.1 1.5 0.2 2.3 0.1 4.7-0.8 9.3 0.2 13.9 0.4 0.2 0 0.5 0.1 0.6 0.1 2.4 1.6 5.2 2.7 6.5 5.7 0.8 1.8 2.4 2.1 4.1 2 5.1-0.2 10.2-0.1 15.1 1 6 1.4 12 2.9 17.7 5.2 0.8 0.3 1.7 0.3 2.5 0.7 2 0.8 4.1 1.4 5.8 2.9 1 0.9 2.4 1.2 3.6 1.8 2.4 1.2 5 2.2 7.2 3.9 2 1.6 4.3 2.5 6.3 4 1.2 0.9 2 1.9 3.2 2.8 1.4 1.1 2.5 2.4 4.1 3.2 0.3 0.2 0.6 0.5 0.8 0.8 1 2.2 2.9 3.7 4.8 5 2.5 1.7 4.1 4.1 5.3 6.8 0.5 1.1 1.2 2 2 2.8 1.3 1.4 2.6 1.9 4.6 1.2 2.3-0.8 4.3-1.8 6.3-3 1.1-0.6 1.6-1.9 2.8-2.5 1.8-0.9 2.9-0.9 4.2 0.6 1.4 1.6 2.7 3.3 3.3 5.4C278.3 87 278.3 87.7 277.6 88.2z"/><path fill="#4C4C4C" d="M277.6 88.2c-0.2-2.9-1.8-5.1-3.8-7.1 -1.5-1.5-2.9-0.3-3.9 0.8 -2.1 2.4-4.8 3.8-7.8 4.5 -0.1 0-0.2 0.1-0.3 0.1 -1.1 0.3-2.7 1.1-3.3 0.7 -1.6-1.1-3.2-2.6-4-4.3 -1.4-3-3.1-5.5-5.8-7.5 -1.8-1.3-3-3.3-4.7-4.9 -1.4-1.3-3-2.5-4.5-3.7 -3.3-2.4-6.5-5-9.9-7.1 -3-1.8-6.3-3.1-9.4-4.7 -2.1-1-4-2.5-6.1-3.2 -8.4-2.7-16.7-5.8-25.5-6.8 -3.8-0.4-7.6-0.3-11.4-0.2 -1.9 0-2.8-0.9-3.6-2.3 -2.1-3.7-5.3-6-9.6-6.2 -3.5-0.1-7.1 0.5-10.6 0.2 -3.8-0.4-7.5-1.5-11.1-2.4 -7.2-1.8-14.3-3.8-21.5-5.4 -6.3-1.3-12.8-2.3-19.2-3.1 -5.3-0.7-10.7-0.8-16.1-1.2 -1.6-0.1-3.3-0.6-4.9-0.9 0.5-0.6 1.3-0.2 1.9-0.5 0.6-0.1 1.2 0 1.8 0 1 0.4 2 0.3 3.1 0 0.4 0 0.8-0.1 1.2 0.1 5 0.3 10 1 15 1.2 3.2 0.2 6.4 1 9.6 1.4 4.5 0.5 9 0.8 13.5 1.6 2.8 0.5 5.7 1.2 8.5 2 1.6 0.4 3.3 0.6 5 1 1 0.3 2 0.4 3 0.8 2.8 1.1 5.6 1.6 8.6 2 3.9 0.6 7.9 1.1 11.9 1.5 3.6 0.4 7.1 0.8 10.7 1.4 0.5 0.1 1.1 0.1 1.6-0.2 1.2-0.7 2.3-0.8 3.5 0.1 0.6 0.4 1.1 0 1.5-0.6 1.2-1.8 2.9-2.4 5-1.8 0.7 0.2 1.3 0.4 1.8-0.2 0.5-0.6-0.2-1.1-0.5-1.6 -0.7-1.1-0.6-1.9 0.5-2.6 0.8-0.6 1.8-0.8 2.8-0.8 1.3 0.1 2.6-0.2 3.8-0.8 0.8-0.4 1.5-0.5 2.3-0.1 3.9 1.7 7.9 2.1 12 1.2 0.8-0.2 1.6-0.2 2.4 0 1 0.3 2 0.3 2.9-0.2 0.9-0.5 1.8-0.4 2.6 0.2 2.4 1.8 4.8 1.2 7.3 0.3 0.8-0.3 1.5-0.7 2.2-1.1 1.4-0.7 2.8-0.8 4.3-0.2 1.4 0.6 2.7 0.5 4.2 0.1 3.4-1 6.8-1.7 10-3 0.2 0 0.4 0.1 0.6 0.1 0.9 0.2 1.6 1.3 2.6 0.3 1.5 0.1 3.1 0.2 4.6 0.3 0.8 0.9 1.7 1.1 2.8 0.5 0.6-0.4 1.2-0.3 1.9-0.3 3.7-0.1 7.4 0.2 11.1-0.1 0.5 0 1 0 1.5-0.1 1.2-0.2 2.6-0.6 2.8 1.4 0 0.3 0.4 0.5 0.7 0.6 0.3 0.2 0.7 0.3 1 0.6 -0.2-0.3-0.4-0.5-0.4-0.8 -0.1-0.7 0.2-1.1 0.7-1.5 0.9-0.6 1.8-0.5 2.6 0 0.7 0.4 1 1.6 2.1 1.3 1.3-0.3 2.2-1.3 3.3-2.1 0.3-0.3 0.5-0.7 1-0.8 2.7 0 5.4-0.5 8.2-0.6 0.5 0 0.8-0.2 1.1-0.6 0.5-0.6 1.1-0.7 1.7-0.2l0 0c1.1 0.6 2.2 0.6 3.4 0.4 1.3-0.8 2.8-0.1 4.2-0.3 2.7-0.4 5.6-0.2 8.4-0.6 0.9-0.1 1.8 0.3 2.8 0.2 3-0.2 6-1 8.9-0.6 10.9 1.5 21.8 0.9 32.8 0.5 0.4-0.3 0.9-0.3 1.4-0.2 0.9 0.2 1.7 0.2 2.5-0.4 0.7-0.5 1.5-0.3 2.3-0.4 3.2-0.2 6.5-0.3 9.7-0.5 0.5 0 0.8-0.2 1.2-0.5 1.3 0.2 2.6 0.4 3.8 0.6 1.6-1.2 3.5-0.4 5.3-0.6 2.7-0.3 5.5-0.4 8.2-1 0.5 0.1 1.1 0.2 1.6 0.3 0.5-0.8 1.3-0.6 2-0.6l0 0c2.8-0.3 5.5-1.1 8.3-1 4 0.1 7.9-0.8 11.8-1.2 0.8-0.1 1.5 0.3 2.2 0.1 1.2-0.1 2.4-0.3 3.6-0.4 0.6 0 1.2 0 1.6 0.5 0 23.3 0 46.6 0.1 69.8 0 1.7-1 1.3-1.9 1.3 -31.8 0-63.5 0-95.3 0C307.8 88.2 292.7 88.2 277.6 88.2z"/><path fill="#575757" d="M244.2 24.5c-1.5 0.8-2.9 1.8-4.5 2.4 -1.7 0.7-3.6 1.2-5.4 1.4 -1.5 0.2-3.2 0.3-4.6-0.2 -2.3-0.8-4 0.4-5.9 1.3 -2.7 1.2-5.3 1.7-7.9-0.2 -0.3-0.3-0.8-0.5-1.2-0.5 -3.6 0.3-7.1 0.9-10.7 0.9 -2.6 0-5.2-0.9-7.8-1.4 -0.4-0.1-0.8-0.5-1.2-0.4 -2.2 0.4-4.3 0.8-6.4 1.3 -0.6 0.1-1 0.8-1.5 1.3 0.5 0.4 1 0.9 1.5 1.3 0.4 0.3 0.8 0.4 1.2 0.6 -0.3 0.3-0.6 0.7-1 1 -1.3 0.9-2.4 2.4-4.4 0.7 -0.4-0.4-1.9 0.6-2.9 0.9 0.2 0.5 0.4 1.1 0.6 1.6 0 0.1-0.1 0.4-0.2 0.4 -0.2 0.1-0.6 0.2-0.8 0.1 -2.8-1.4-5.7-0.3-8.6-0.7 -5.4-0.7-10.8-1.1-16.2-1.9 -4.4-0.7-8.8-1.6-13.1-2.6 -6.8-1.5-13.5-3.4-20.3-4.5 -9.9-1.6-19.9-2.7-29.9-4 -1.6-0.2-3.2-0.3-4.9-0.4 0.4-0.4 0.9-0.2 1.3-0.1 7.6 0 15.3-0.1 22.9 0 5.7 0.1 11.3 1 17 1 16 0 32-0.3 48-0.4 0.7 0 1.3-0.1 2-0.2 1.6-1 3.4-0.6 5.1-0.8 1.1-0.2 2.3 0 3.4-0.5 0.1 0 0.2 0 0.3-0.1 0 0 0.1-0.1 0.1-0.1 1.7 0 3.3 0 4.9-0.7 1.6 0.7 3.2 0.9 4.9 0.3 1.3-0.4 2.7 0.1 4 0.2 1.8 0.2 3.7-0.3 5.5 0.5 8.4 0.8 16.8 1.7 25.2 2.3 3 0.2 6.1-0.2 9.2-0.3C242.8 24.2 243.5 24.4 244.2 24.5z"/><path fill="#828282" d="M73.2 23c-3.7 0-7.5 0.1-11.2-0.1 -2.8-0.1-5.7-0.6-8.5-1 4.5-1.1 8.9-2.1 13.4-3.2 0 0.9-0.6 1.7-1.6 1.9 -1.4 0.3-2.8 0.3-4.2 0.4 -0.1 0-0.2 0-0.3 0.1 0.1 0 0.2-0.1 0.3-0.1 0.9-0.1 1.8-0.1 2.7-0.2 1.1-0.2 2-0.2 3.1 0.5 0.9 0.6 2.1 0.4 3 0.1 1.2-0.4 2.2-0.3 3.2 0.3 0.5 0.3 1 0.2 1.4 0.2 1.5-0.2 2.9 0.5 4.3 0.5 0.5 0 1 0.3 0.2 0.8C77.1 23 75.1 23.3 73.2 23z"/><path fill="#575757" d="M282.8 24.6c-0.7 0.7-1.3 1.5-2.1 2.1 -2.4 2-2.6 1.9-4.5-0.6 -0.3-0.4-1-0.3-1.6-0.5 0 0.7-0.1 1.3-0.1 2 0 0 0.1 0.1 0.1 0.1 0.4 0.7 0.8 1.4 1.2 2.1 -0.8-0.4-1.6-0.7-2.3-1.1 -0.4-0.2-0.8-0.6-1.1-0.6 -1.6 0.1-1.9-0.5-1.5-2 0-0.2-1.1-0.6-1.7-1 3.4-0.2 6.9-0.4 10.3-0.6C280.7 24.1 281.8 23.4 282.8 24.6z"/><path fill="#CCCCCC" d="M415.1 17.3c-4 0.4-8 0.9-12.1 1.2 -3.5 0.3-7 0.3-10.5 0.4 2.7-0.4 5.3-0.9 8-1.3 3.2-0.5 6.3-0.9 9.5-1.3 1.8-0.2 3.6-0.1 5.5-0.1C415.8 16.9 415.5 17.1 415.1 17.3z"/><path fill="#D1D1D1" d="M79.4 22.9c-3.4-0.4-6.8-1-10.3-1.3 -2.5-0.2-5-0.2-7.5-0.1 -1.1 0-2.1 0.4-3.2 0.6 -0.3 0-0.7-0.2-1-0.2 0.3-0.2 0.5-0.5 0.8-0.6 2.3-0.5 4.7-1 7-1.6 0.5-0.1 1-0.7 1.5-1 0.1 0.2 0.4 0.5 0.4 0.6 -1.2 2.4 0.7 1.8 1.8 1.9 3.8 0.4 7.5 0.8 11.3 1.1 1.8 0.2 3.6 0.2 5.3 0.3 1.3 0.1 2.6 0.2 3.9 0.3 -0.4 0-0.9 0.1-1.3 0.1 -0.4 0-0.9 0-1.3 0 -0.9 0.3-1.7 0.5-2.6 0 -0.7 0-1.3 0-2 0C81.4 23.1 80.4 23.3 79.4 22.9z"/><path fill="#D7D7D7" d="M371.5 20.3c-0.3 0.3-0.6 1-0.9 1 -5.4 0.4-10.8 0.6-16.2 0.9 0.1-0.4 0.1-0.8 0.2-1.2 0.4 0.1 0.9 0.3 1.3 0.4 0.5 0.1 1.2 0.5 1.4 0.3 2.3-2 5.2-0.8 7.7-1.3C367.1 20.1 369.3 20.3 371.5 20.3z"/><path fill="#D4D4D4" d="M282.8 24.6c-1.1 0-2.2 0-3.3 0 1.3-0.5 2.6-1 4-1.4 0.6-0.2 1.3 0 1.9 0.1 0.6-0.8 1.3-1.1 2.2-0.4 0.4 0.3 0.7 0.4 1.1 0 0.7-0.2 1.3-0.4 2-0.6 0.8 0.1 1.7-0.2 2 1 -0.3 0.2-0.6 0.7-0.9 0.7C288.8 24.2 285.8 24.4 282.8 24.6z"/><path fill="#9C9C9C" d="M312.7 22.3c-3.2 0.3-6.4 0.7-9.7 1 -2 0.2-4.1 0.2-6.1 0.3 -0.5-1.2 0.7-0.6 1-1l0 0c0.9-0.2 1.7-0.5 2.6-0.6 3.1 0 6.3 0 9.4 0C310.9 22 311.8 22.2 312.7 22.3z"/><path fill="#575757" d="M267.7 25.2c-3.2 0.1-6.4 0.1-9.6 0.4 -1.3 0.1-2.5 0.8-3.8 1.3 -0.7 0.2-1.4 0.5-2.1 0.8 -0.1-0.8-0.2-1.6-0.3-2.4C257.2 25.2 262.5 25.2 267.7 25.2z"/><path fill="#A4A4A4" d="M207.8 22.2c-3-0.2-6-0.4-9.1-0.5 -0.6 0-1.2 0.4-1.8 0.6 -1.3 0.3-2.6 0.6-3.6-0.7 0-0.6 0.3-0.5 0.7-0.4 4 0.1 7.9 0.2 11.9 0.4C206.5 21.7 207.1 22 207.8 22.2z"/><path fill="#D5D5D5" d="M188.1 22c-0.2 0.3-0.3 0.9-0.5 0.9 -2.7 0.2-5.4 0.3-8.1 0.4 0.2-0.3 0.4-0.7 0.6-0.7C182.7 22.3 185.4 22.2 188.1 22z"/><path fill="#969696" d="M388.8 19.4c-2.4 0.4-4.9 0.9-7.3 1.2 -2.1 0.2-4.1 0.2-6.2 0.3 0.5-0.3 0.9-0.8 1.4-0.8C380.8 19.8 384.8 19.6 388.8 19.4z"/><path fill="#DADADA" d="M194 21.2c-0.2 0.1-0.5 0.3-0.7 0.4 -1.5 1.8-3.2 1.2-4.9 0.3C190.1 20.9 191.9 20.4 194 21.2z"/><path fill="#D9D9D9" d="M292.7 23.3c-0.7-0.3-1.3-0.6-2-1 1-1.2 2.2-1.1 3.3 0.3C293.6 22.8 293.1 23 292.7 23.3z"/><path fill="#C4C4C4" d="M297.9 22.6c-0.3 0.3-0.6 0.7-1 1 -1.2 0.2-2.5 0.9-3-1C295.3 22.6 296.6 22.6 297.9 22.6z"/><path fill="#9C9C9C" d="M415.1 17.3c0.1-0.3 0.2-0.7 0.3-1 1.1-0.1 2.2-0.4 3.3-0.4 0.4 0 0.9 0.7 1.3 1.1C418.3 17.2 416.7 17.2 415.1 17.3z"/><path fill="#828282" d="M53.5 21.9c-2.6-0.1-5.3-0.2-7.9-0.3C48.2 21.7 50.8 21.8 53.5 21.9z"/><path fill="#D9D9D9" d="M288.8 22.9c-1.1 0.1-2.2 0.2-3.3 0.3 0.2-1.3 0.9-1.5 2-0.9C287.9 22.6 288.3 22.7 288.8 22.9z"/><path fill="#575757" d="M247.4 24.9c-1.1 1.5-1.9 1.4-2.6-0.3C245.7 24.7 246.5 24.8 247.4 24.9z"/><path fill="#CCCCCC" d="M392.5 19c-0.7 0.2-1.3 0.4-2 0.6C390.7 18.1 391.5 18.3 392.5 19z"/><path fill="#C4C4C4" d="M300.6 22c-0.9 0.2-1.8 0.4-2.6 0.6C298.8 22.4 299.7 22.2 300.6 22z"/><path fill="#575757" d="M79.4 22.9c1 0 1.9 0 2.9 0.1 -0.7 0.1-1.3 0.2-2 0.3 -2.4-0.1-4.8-0.2-7.2-0.3C75.3 22.9 77.4 22.9 79.4 22.9z"/><path fill="#575757" d="M192.3 31.5c0.9-0.6 1.6-1.5 2.3-1.5 0.7-0.1 1.5 0.7 2.3 1.1 -1.1 0.7-2.2 1.4-3.4 2.1C193.5 33.2 193 32.3 192.3 31.5z"/><path fill="#575757" d="M176.4 40.1c-0.5 0.2-0.7 0.3-0.9 0.3 -0.3-0.1-0.4-0.4-0.7-0.6 0.2-0.1 0.4-0.3 0.6-0.3C175.7 39.6 175.9 39.8 176.4 40.1z"/><path fill="#575757" d="M84.3 22.9c0.9 0 1.7 0 2.6 0C86.1 23 85.2 23 84.3 22.9z"/></svg>