<?xml version="1.0" encoding="utf-8"?>
<!-- Generator: Adobe Illustrator 18.1.1, SVG Export Plug-In . SVG Version: 6.00 Build 0)  -->
<!DOCTYPE svg PUBLIC "-//W3C//DTD SVG 1.1//EN" "http://www.w3.org/Graphics/SVG/1.1/DTD/svg11.dtd">
<svg version="1.1" id="Layer_1" xmlns="http://www.w3.org/2000/svg" xmlns:xlink="http://www.w3.org/1999/xlink" x="0px" y="0px"
	 viewBox="0 0 303.3 67" enable-background="new 0 0 303.3 67" xml:space="preserve">
<g id="p3zLqb_1_">
	<g>
		<path fill="#582F2E" d="M308.2,0v67.2c0,0-18.7-1.3-26.6-1.8c-3-0.2-5.9-0.9-8.9-0.9c-1.8,0-3.6,1.4-5.3,1.4
			c-7.7-0.1-15.3-0.6-23-0.8c-1.2,0-2.4,0.5-3.5,0.5c-0.6,0-1.2-0.6-1.8-0.8c-0.6-0.3-1.1-0.6-1.7-0.7c-11.1-0.5-22.2-0.8-33.2-1.6
			c-13.3-1-26.6-1.8-39.7-4.2c-12.1-2.2-23.7-6.8-35.8-9.3c-7.1-1.5-14.7-0.3-21.9-1.4c-3.5-0.5-8.7-2.8-9.6-5.5
			c-2.8-8.4-8.6-5.9-14.4-6.1c-5.8-0.1-11.6-1.9-17.4-2.9c-1.8-0.3-3.7-0.5-5.5-1c-4.3-1.4-8.5-2.9-12.6-4.5c-4-1.6-8-3.4-11.9-5.2
			c-0.4-0.2-0.4-1.1-0.8-1.4c-0.9-0.6-1.8-1.2-2.8-1.5c-1.1-0.3-2.5,0-3.4-0.6c-4.3-2.7-8.7-5.4-12.7-8.6C11.8,7.2,8.5,3.4,5,0
			C106.1,0,207.1,0,308.2,0z"/>
	</g>
</g>
</svg>
