<svg xmlns="http://www.w3.org/2000/svg" xmlns:xlink="http://www.w3.org/1999/xlink" version="1.1" id="Layer_1" x="0" y="0" viewBox="0 0 1280 136.8" enable-background="new 0 0 1280 136.8" xml:space="preserve"><g id="VuEtQD_1_"><path fill="#6A3332" d="M-5.4 116.6c0-52.3 0-74.4-0.1-126.7 0-3.8 0.8-4.6 4.6-4.6 429.5 0.1 858.3 0.1 1287.7 0.1 -0.1 2-0.2 4-0.2 6 0 33.1-0.1 36 0.1 69.1 0 3.5-0.4 5.2-4.6 4.7 -3.6-0.4-7.8-0.6-10.9 0.8 -7.8 3.6-15.4 2.2-22.5-0.7 -7.3-3-14.4-3.1-21.7-1.8 -10.1 1.7-20.1 1.7-29.9-1.6 -3.5-1.2-6.1-0.6-9.5 0.6 -3.8 1.4-8.6 2-12.4 1 -11.6-3.1-22.9-7.4-34.4-10.6 -3.9-1.1-8.3 0-12.4-0.6 -15.8-2.1-31.5-1.5-47.2 0.7 -1.3 0.2-2.5 0.9-3.7 1.4 -3.3 1.5-6.5 3.6-10 4.3 -12.4 2.7-24.8 6.3-37.3 7.1 -11.4 0.7-23.2-0.9-34.4-3.3 -6.5-1.4-11.8-2.8-17.3 1.7 -1.3 1.1-3.5 1.1-5.3 1.5 -9.8 2.2-18.8 6-26 13.4 -1 1-3.7 1.7-4.9 1.1 -6.5-3.1-12.8-1-19.2 0.1 -3.9 0.7-7.9 0.4-11.8 0.6 -2.9 0.2-6.3-0.3-8.4 1.1 -6 4-12.3 4.5-19.2 4.1 -12.7-0.8-23.5 5.1-33.5 11.8 -5.1 3.4-9.5 4.6-14.9 2.4 -4.7-1.9-9.2-4.1-14-5.7 -9.2-3-15.3-1-21.4 6.5 -5.4 6.6-7 6.8-14.7 2.1 -2-1.2-4.7-2.5-6.8-2.1 -6.9 1.3-13.7 3.1-20.5 5.1 -28.6 8.6-57.3 11.1-86.1 1.9 -10.8-3.5-21.1-4.7-32-1.3 -3.6 1.1-7.7 0.9-11.5 1.5 -11.6 1.8-23.2 3.6-34.7 5.7 -3.9 0.7-7.4 2.9-11.2 3.9 -3.7 0.9-7.7 0.5-11.2 1.8 -14.9 5.4-30.4 7.4-46.1 7.5 -25.8 0.2-51.7-0.3-77.5-0.5 -3.5 0-7-0.4-10.5-0.1 -17.4 1.5-34.7 3.3-52.1 4.8 -27.7 2.5-55.1-5.7-82.9-2.2 -18 2.2-36.2 2.6-54.3 3.3 -16.9 0.7-33.4 4.6-50.6 3.8 -22-1-43.8-1.6-65.2-7.5 -8.2-2.2-16.9-2.4-25.4-3.7 -11.1-1.6-22.2-3.9-33.4-4.8 -11.5-1-23-0.4-34.5-1 -7-0.4-14-1.9-21-2.4C10 116.8 2.3 116.9-5.4 116.6z"/></g></svg>