<svg xmlns="http://www.w3.org/2000/svg" xmlns:xlink="http://www.w3.org/1999/xlink" version="1.1" id="Layer_1" x="0" y="0" viewBox="0 0 289 663.3" enable-background="new 0 0 289 663.3" xml:space="preserve"><style>path{fill:rgba(0,0,0,0.1);}</style><path d="M92.9 181.7c-6.8 0.4-13.1 1.3-19.5-0.4 -1.4-0.4-1.3 1.3-1.8 2.2 -1.2 2.4-1.4 6.3-4.5 6.6 -3.3 0.3-4.3-3.5-5.4-6 -3.5-7.6-7.7-15-8-23.7 -0.1-3.1 1.3-5.8 2.1-8.6 2.2-7.8 2.1-15.5 0.4-23.4 -0.6-3-1.5-6.8 1.4-8.5 3.1-1.8 5.7 1.3 8 3.3 2.7 2.4 4.3 5.7 6 8.9 0.4 0.7 0.6 2.3 2 1.1 5.2-4.7 11.1-8.2 18-12.5 -3.8 0-6.6 0-9.3 0 -1.2 0-2.3-0.3-2.9-1.4 -0.7-1.3 0.2-2.2 1-3 2.8-3.1 6.3-5 9.9-6.8 18.9-9 36.4-20.2 50.9-35.5 3.6-3.8 6.5-8.1 8.9-12.7 0.9-1.7 1.7-3.7-0.1-5.3 -1.7-1.7-3.1 0-4.5 0.7C123.2 68.2 101 80.1 78.7 91.9c-1.3 0.7-2.7 1.3-4.1 1.8 -4.7 1.5-7.1-0.3-7.2-5.2 -0.1-8.7 0.7-17.3 3-25.8 1.5-5.4 4.7-8.3 10.6-8.3 3.8 0 7.1-1.9 10.1-4.1 11.2-8.2 21-17.8 29.2-29 3.9-5.4 3.5-7.2-2.2-10.8C115.8 9 116.4 8 118.4 7c5-2.4 10.1-2.2 15.1-0.5 11.4 3.9 20.5 10.3 24.3 22.5 0.9 2.9 0.6 5.9 0.3 8.9 -0.2 1.4 0 2.1 1.5 2.3 3.9 0.5 6.9 2.6 9.1 5.7 10.8 15.3 11.8 24.3-5.1 40.7 -2.2 2.1-4.8 3.9-7.1 5.9 -0.9 0.8-1.9 2-1.2 3.2 0.7 1.4 2.1 0.3 3.1 0.1 11.3-2.6 22.7-5.1 34.3-2.3 11.2 2.7 21.6 7.2 30.5 14.8 3 2.6 5.5 5.8 6.4 9.8 2.1 8.8 1.2 12-6.5 14.9 -9.8 3.7-18.6 9.7-26.6 16.3 -10.8 9-23.3 12.5-36.8 13.9 -4 0.4-7.1 1.6-9.9 4.9 -8.8 10.2-19.1 18.9-30.6 26 -0.7 0.4-1.4 1-2.8 2.1 9.4 0.4 17.4 2.9 25 6.9 3.6 2 7.2 4.1 10.7 6.3 1.5 0.9 2.4 0.8 3.6-0.4 12.2-12.4 25.1-23.9 39-34.5 6.5-5 11.7-6.9 18.8-3.5 3 1.4 4.4 3.6 5 6.8 2.5 12-2.4 20.8-10.8 28.8 -10.4 9.9-19.9 20.8-28.3 32.6 -0.6 0.8-0.9 1.8-1.3 2.7 0.9 0.1 1.8 0.3 2.8 0.4 24.4 1.9 48.5 5 71.2 14.8 8.7 3.8 15.5 9.9 20.1 18.3 1.8 3.3 2.8 6.9 0.2 10.2 -2.4 3-5.7 2.2-9 1.4 -22.7-5.8-45.2-12.8-68.3-17.2 -8.6-1.7-17.2-2.2-25.9-0.9 -1.7 0.3-2.3 0.9-2.6 2.6 -2.9 16.6-6.6 33.1-15.7 47.7 -4.8 7.7-10.9 14.2-18.2 19.5 -6.6 4.8-13.5 5.4-20.8 2 -13.4-6.1-26.7-12.5-39.6-19.7 -8.3-4.6-13.2-12.5-17.9-20.3 -7.3-12.1-13.4-24.7-14.6-39.1 -0.6-6.4 1.8-12.4 2.9-18.6 0.2-0.9 0.6-2.3 0.2-2.7 -0.8-0.9-1.9 0.2-2.8 0.5 -6.8 2.5-12.3 7-18.3 10.9 -1.6 1.1-3.5 3.1-5.4 1.9 -2.2-1.4-0.8-3.9-0.3-5.8 1.8-7 4.1-13.9 7.1-20.6 1.6-3.7 4.3-5.6 8.3-6.5 10.8-2.4 19.5-9 28.6-14.7 10.9-6.9 21.2-14.8 31.2-22.9C91.8 182.3 92.4 182 92.9 181.7zM117.4 310.6c8.8 0.3 15.2-3.5 19.5-11 5-8.6 7.5-18.1 9.5-27.7 0.4-1.8-0.4-2.2-2.1-2.3 -2.7-0.1-5.4-0.4-8.1-0.9 -5.2-1.1-6.4-3.8-4.1-8.7 2.8-5.9 7.6-9.8 13.1-12.8 1.1-0.6 2.5-1 2.6-2.6 0.2-3.9 0-7.7-1.4-11.4 -0.4-0.9-0.8-2.1-2-1.4 -3.9 2.3-8.2 4.1-9.7 9.2 -7.3 24.3-18.5 46.4-36.7 64.5 -1.6 1.6-0.8 2 0.8 2.5C105 309.5 111.1 310.4 117.4 310.6zM143.9 144.6c-0.6 4.1 1.3 5.4 5.1 4.6 6.6-1.3 12.9-3.2 18.5-7 10.9-7.4 19.2-17.4 26.5-28.1 1-1.4 1.7-3.1 1.9-4.8 0.5-3.2-0.6-5.3-4.3-5.2 -3 0-5.7 1-8.3 2.2 -13.4 6.3-27.3 11.3-42 14.1 -2.1 0.4-2.3 1.2-1 2.7 4.8 5.3 6.4 11.3 3.9 18.2C144.1 142.3 144.1 143.5 143.9 144.6zM51.2 281.3c0.4-1.7 0.7-2.6 0.9-3.5 1.3-6.5 2.6-13 4.6-19.4 1.4-4.2 2.9-7.9 8.4-7.7 1.1 0.1 2.4-0.8 3.3-1.5 7.5-6.4 13.3-14.2 18.5-22.4 1-1.5 1-3.1-0.3-4.6 -1.3-1.5-2.6-0.7-4-0.1 -8.6 4.1-17.3 8.4-26.6 10.6 -8.3 1.9-11.3 7.2-12.6 14.6 -0.2 1.1-0.3 2.3-0.5 3.4C41.9 261.6 45.4 271.3 51.2 281.3zM115.9 242c-0.2-1.8-0.3-3.2-1.8-3.5 -2.1-0.4-4.2-0.1-5.8 1.6 -3.8 4.3-7.3 8.8-11.4 12.8 -9.8 9.7-19 20.2-32.4 25.4 -2.8 1.1-5 3.1-7 5.5 -1.3 1.6-1.3 2.6 0.5 3.8 5.2 3.4 10.4 6.8 15.6 10.3 2.2 1.5 3.1 1 3.8-1.4 2.6-9.5 7.9-17.2 15.5-23.5 8.8-7.3 15.4-16.5 21.1-26.4C114.9 245 115.4 243.2 115.9 242zM77.5 157.2c0 4.7 0 4.7 4.4 3.2 5.6-1.9 11.2-4.2 17-5.6 6.1-1.5 10.4-5.3 14.4-9.6 1.7-1.8 4-4.1 1.7-6.7 -3-3.4-6.6-7.9-11.5-6.3 -7.6 2.4-14.5 6.6-21.2 10.9 -4 2.6-7.3 5.2-4.8 10.7C77.9 154.7 77.5 156 77.5 157.2zM197.3 180.7c-0.3-0.6-0.5-1.1-0.8-1.6 -0.6 0.3-1.3 0.5-1.8 0.9 -11.1 9-21.7 18.5-31.1 29.4 -4.2 4.9-6.4 9.3-2.7 15.5 1.5 2.5 1.9 2.9 3.9 0.8 12-12.2 21.6-26.2 30.7-40.6C196.3 183.8 196.7 182.2 197.3 180.7zM138 223.2c0-1.6-1-2.5-2.1-3.3 -4.5-3.4-9.9-4.5-15.4-5.6 -4.5-0.9-7.1-0.5-4.7 5 0.3 0.6 0.2 1.4 0.1 2.1 -0.4 2.4 0.6 3.3 3 3.3 3.7-0.1 6.8 1.5 9.7 3.4 1.2 0.8 2.1 2.6 4 1.2C135.2 227.7 137.5 226.1 138 223.2z"/><path d="M143.9 559.7c2.7-3.3 5.5-5 8.7-6.3 7.5-3 9.1-5.8 8.5-13.9 -0.6-7.4-0.8-14.9-1.2-22.3 -0.1-2.9-0.3-5.8-1.4-8.5 -1-2.4-1-4.7 0.7-6.9 0.6-0.8 0.6-2.1 0.6-3.2 0-7.8-0.4-15.6 1.1-23.4 0.3-1.8 0.1-2.9-2.2-2.5 -12.5 1.9-22.3-3.7-31.1-11.6 -1.8-1.6-3.2-1.9-5.3-0.9 -4.9 2.4-9.7 5-13.9 8.5 -3.6 3.1-3.1 8-4.1 12.1 -2.5 10.9-3.7 22.1-4.7 33.3 -0.1 0.6 0.1 1.2 0.2 1.8 0.6-0.2 1.3-0.4 1.8-0.8 4.5-3.7 8.9-7.4 13.5-11 1.1-0.8 2.2-2.7 3.8-1.6 1.3 0.9 0.7 2.8 0.4 4.2 -1.2 7.2-4.4 13.5-8.3 19.5 -2.2 3.3-4.1 7-7 9.5 -7.3 6.4-7.8 14.7-8.3 23.5 -1.4 25.1 2.2 50 2.2 75 0 6.3-0.1 12.6-1 18.9 -0.3 1.8-0.4 4-2.3 4.7 -1.9 0.7-3.1-1.3-4.3-2.5 -9.7-9.2-13.7-20.5-13.1-33.9 0.7-17.5 1.2-34.9 0.5-52.4 0-0.7-0.3-1.4-0.5-2.2 -0.6 0.4-1.3 0.8-1.8 1.4 -6.6 7.6-13 15.3-20.6 21.8 -4.7 4-7.5 3.9-12.2-0.1 -7.4-6.2-10.4-17.7-7.2-26.7 0.7-1.9 1.9-3.3 3.7-3.8 5.2-1.5 8.8-5 11.7-9.4 9-13.8 19-27.1 22.9-43.5 0.7-3.1 0.9-6.2 1.2-9.4 0.1-0.9 0.1-2.3-0.5-2.7 -0.9-0.6-1.7 0.5-2.4 1.1 -5.7 5.2-11.4 10.4-17 15.7 -4.6 4.4-8.4 5.2-14.3 2.6 -6.8-2.9-12.5-7.5-17.8-12.5 -6.8-6.3-13.8-12.6-19-20.3 -2.7-4-2.1-5.5 2.7-6.3 17.5-2.9 33.4-8.9 46.5-21.5 5.1-4.9 10.9-8.9 16.9-12.5 1.1-0.6 2.1-1.5 3.2-1.8 8.7-2 11-8.3 11.8-16.2 0.8-8.5 1.2-17 0.1-25.4 -0.6-4.6-2.9-8.2-6.3-11.2 -1.5-1.3-2.9-3-2-5.3 0.9-2.3 3-2.5 5.1-2.4 18 0.7 41.8 14.8 34.9 43.9 -0.6 2.6 0 3.5 2.5 4.2 5.1 1.3 9 4.5 12.3 8.6 2.4 3 2.7 6.1 0.8 9.5 -0.3 0.5-0.5 0.9-0.7 1.4 -0.7 2.1-1.4 4.7 0.1 6.3 1.3 1.3 3.2-0.6 4.7-1.2 7.5-2.9 15-5.9 22.6-8.8 1.9-0.7 2.6-1.7 2.4-3.7 -1-7.6-1.9-15.3-2.8-23 -0.4-3.3-0.6-6.9 2.3-8.9 3-2.1 6.1-0.1 8.8 1.6 7.6 4.9 12.2 12 14.7 20.5 0.7 2.3 1.6 2.6 3.7 1.6 8.2-4 16.9-6.9 25.7-9.3 2.5-0.7 3.4-1.7 3.7-4.4 1-10.4 1-20.9 0.9-31.3 0-5.8-2.1-7.5-7.9-6.9 -2.6 0.3-5.2 0.4-7.9 0.5 -2.6 0.1-3.1-1.1-1.8-3.2 3.4-5.6 6.3-12.7 14.1-12 11.3 1.1 20 6.9 24.1 18.1 3.6 10.1 3.4 20.7 3.3 31.2 0 2.7 0.8 3.8 3.4 4.6 4.3 1.3 8.6 3.1 12.8 4.8 2.9 1.2 3.4 3.2 1.9 5.9 -3.3 6.3-8.4 9.5-15.6 8.9 -2.4-0.2-2.6 1.4-3 2.8 -3.6 13.5-4.5 27.2-3.1 41.2 1.5 15.7 1.2 31.4 0.1 47.1 -0.3 3.9-0.8 7.8-1.2 11.8 -0.2 1.9 0.8 1.8 2.3 1.6 7.9-1.2 15.7-3.4 23.7-1.1 7.1 2 13.4 5.6 18.7 10.9 0.9 0.9 1.7 2 2.4 3.1 4.2 6.8 1.6 11.5-6.4 12 -10 0.6-19.7-1.6-29.5-2.9 -4.3-0.6-8.5-1.1-12.7-1.7 -1.8-0.3-2.3 0.8-2.8 2.1 -1.9 5-3.8 10-6.7 14.6 -1.7 2.6-3.4 3.2-5.5 0.6 -3.9-4.8-9.4-8.7-9.1-15.9 0.1-1.3-0.8-1.2-1.8-1.1 -8.4 1.4-16.3 4-24.2 7.1 -1.1 0.4-1.3 1.3-1.7 2.2 -0.4 1.1-1.2 2.5-2.3 2.2 -5.8-1.9-10.1 2-14.8 3.8 -15.4 5.6-30.4 12.5-46.6 15.3 -9.9 1.7-17.2-5.5-15.4-15.2 0.7-3.5 2.3-6.1 6.6-3.8 2 1.1 4.2 1 6.1-0.1 14.7-8 31-11 46.7-15.7 0.8-0.2 2.1-0.2 2-1.2 0-0.7-0.9-1.4-1.6-1.9 -2-1.5-4.2-1-6.3-0.1C154.2 557.2 149.6 559 143.9 559.7zM215.9 531.8c-0.1-0.8 0.2-3.3-0.7-3.8 -1.2-0.7-2.6 1.3-3.8 2.2 -7.6 5.1-15.8 8.7-24.7 10.9 -8.1 2-8.1 1.9-6 10 0.6 2.4 1.6 3.2 4.2 2.5 8.3-2.2 16.6-4.4 25-6 3.6-0.7 5.1-2.3 5.3-5.8C215.4 538.8 215.7 535.7 215.9 531.8zM186.3 465.7c2.1-0.8 4-1.7 6-2.3 6.6-2.2 11-1.4 13.7 2.8 1.6 2.5 3.9 3.6 6.6 4.3 2 0.5 2.8 0.2 2.8-2.1 -0.1-7.8-0.5-15.6 0.4-23.4 0.3-2.2-0.8-2.3-2.5-1.6 -6.2 2.4-12.2 5.4-18.1 8.4C189.4 454.6 186.7 459.1 186.3 465.7zM184.4 507.6c0.1 0.2 0.3 0.5 0.4 0.7 0.7-0.1 1.3-0.2 2-0.2 9.4-1 19-3.6 27.5 3.3 1.5 1.2 1.6-0.3 1.5-1.3 -0.8-7.8-0.2-15.6 0.1-23.4 0.1-1.5-0.4-2.1-2-1.6 -4.4 1.4-8.5 3.5-11.2 7.3 -3.3 4.7-7.6 8.2-12.3 11.3C188.3 505.2 186.4 506.4 184.4 507.6zM179.3 496.8c0.1 1.4 0.1 2.9 1.9 1.7 3.8-2.6 5.9-6.3 6-10.8 0.1-2.7-2.4-3.6-4.6-3.8 -2.4-0.2-1.8 1.9-2 3.2C180.1 490.4 179.7 493.7 179.3 496.8z"/><path d="M134.9 616.8c1.4-8 3.4-15.8 7.2-23 0.6-1.1 1.3-2.2 2.8-2 1.5 0.2 2 1.5 2.3 2.6 0.7 3 1.2 6 1.8 9 1.4 6.2 3.7 7.2 9 3.8 6.1-3.9 11.5-8.7 18.4-11.2 1.1-0.4 2.4-1.4 3.4-0.3 1 1 0.2 2.5-0.4 3.4 -8.4 13-15.2 26.8-22.9 40.2 -2.2 3.9-5.1 4.1-8.8 1.8C138.8 635.4 136.6 626.3 134.9 616.8z"/><path d="M228.3 616.9c1.2 0.1 2.4 0.2 3.6 0.4 8 1.3 11.9-2.7 10-10.5 -1.3-5.5-3.7-10.6-7.5-14.9 -1.1-1.3-3.1-2.6-2-4.4 1.2-2 3.6-1.2 5.3-0.7 9.7 2.8 16.7 9.3 22.5 17.3 3.2 4.5 4.7 9.7 4.8 15.3 0 2.5-0.7 4.7-2 6.9 -2.5 4-3.1 8.7-3.8 13.3 -0.6 4.3-3.6 6-7.3 3.6 -1.8-1.2-3.5-2.7-4.8-4.5 -5.4-7.4-12.3-12.9-20.1-17.6 -1.3-0.8-3.5-1.3-3-3.1C224.7 616 226.9 617.3 228.3 616.9z"/></svg>