<svg xmlns="http://www.w3.org/2000/svg" xmlns:xlink="http://www.w3.org/1999/xlink" version="1.1" id="Layer_1" x="0" y="0" viewBox="0 0 262.6 342.5" enable-background="new 0 0 262.6 342.5" xml:space="preserve">
  <path d="M79.7 179.2c-6.8 0.4-13.1 1.3-19.5-0.4 -1.4-0.4-1.3 1.3-1.8 2.2 -1.2 2.4-1.4 6.3-4.5 6.6 -3.3 0.3-4.3-3.5-5.4-6 -3.5-7.6-7.7-15-8-23.7 -0.1-3.1 1.3-5.8 2.1-8.6 2.2-7.8 2.1-15.5 0.4-23.4 -0.6-3-1.5-6.8 1.4-8.5 3.1-1.8 5.7 1.3 8 3.3 2.7 2.4 4.3 5.7 6 8.9 0.4 0.7 0.6 2.3 2 1.1 5.2-4.7 11.1-8.2 18-12.5 -3.8 0-6.6 0-9.3 0 -1.2 0-2.3-0.3-2.9-1.4 -0.7-1.3 0.2-2.2 1-3 2.8-3.1 6.3-5 9.9-6.8 18.9-9 36.4-20.2 50.9-35.5 3.6-3.8 6.5-8.1 8.9-12.7 0.9-1.7 1.7-3.7-0.1-5.3 -1.7-1.7-3.1 0-4.5 0.7C110 65.7 87.8 77.5 65.5 89.3c-1.3 0.7-2.7 1.3-4.1 1.8 -4.7 1.5-7.1-0.3-7.2-5.2 -0.1-8.7 0.7-17.3 3-25.8 1.5-5.4 4.7-8.3 10.6-8.3 3.8 0 7.1-1.9 10.1-4.1 11.2-8.2 21-17.8 29.2-29 3.9-5.4 3.5-7.2-2.2-10.8 -2.3-1.5-1.7-2.5 0.3-3.4 5-2.4 10.1-2.2 15.1-0.5 11.4 3.9 20.5 10.3 24.3 22.5 0.9 2.9 0.6 5.9 0.3 8.9 -0.2 1.4 0 2.1 1.5 2.3 3.9 0.5 6.9 2.6 9.1 5.7 10.8 15.3 11.8 24.3-5.1 40.7 -2.2 2.1-4.8 3.9-7.1 5.9 -0.9 0.8-1.9 2-1.2 3.2 0.7 1.4 2.1 0.3 3.1 0.1 11.3-2.6 22.7-5.1 34.3-2.3 11.2 2.7 21.6 7.2 30.5 14.8 3 2.6 5.5 5.8 6.4 9.8 2.1 8.8 1.2 12-6.5 14.9 -9.8 3.7-18.6 9.7-26.6 16.3 -10.8 9-23.3 12.5-36.8 13.9 -4 0.4-7.1 1.6-9.9 4.9 -8.8 10.2-19.1 18.9-30.6 26 -0.7 0.4-1.4 1-2.8 2.1 9.4 0.4 17.4 2.9 25 6.9 3.6 2 7.2 4.1 10.7 6.3 1.5 0.9 2.4 0.8 3.6-0.4 12.2-12.4 25.1-23.9 39-34.5 6.5-5 11.7-6.9 18.8-3.5 3 1.4 4.4 3.6 5 6.8 2.5 12-2.4 20.8-10.8 28.8 -10.4 9.9-19.9 20.8-28.3 32.6 -0.6 0.8-0.9 1.8-1.3 2.7 0.9 0.1 1.8 0.3 2.8 0.4 24.4 1.9 48.5 5 71.2 14.8 8.7 3.8 15.5 9.9 20.1 18.3 1.8 3.3 2.8 6.9 0.2 10.2 -2.4 3-5.7 2.2-9 1.4 -22.7-5.8-45.2-12.8-68.3-17.2 -8.6-1.7-17.2-2.2-25.9-0.9 -1.7 0.3-2.3 0.9-2.6 2.6 -2.9 16.6-6.6 33.1-15.7 47.7 -4.8 7.7-10.9 14.2-18.2 19.5 -6.6 4.8-13.5 5.4-20.8 2C85.3 331.6 72 325.2 59.1 318c-8.3-4.6-13.2-12.5-17.9-20.3 -7.3-12.1-13.4-24.7-14.6-39.1 -0.6-6.4 1.8-12.4 2.9-18.6 0.2-0.9 0.6-2.3 0.2-2.7 -0.8-0.9-1.9 0.2-2.8 0.5 -6.8 2.5-12.3 7-18.3 10.9 -1.6 1.1-3.5 3.1-5.4 1.9 -2.2-1.4-0.8-3.9-0.3-5.8 1.8-7 4.1-13.9 7.1-20.6 1.6-3.7 4.3-5.6 8.3-6.5 10.8-2.4 19.5-9 28.6-14.7 10.9-6.9 21.2-14.8 31.2-22.9C78.6 179.7 79.2 179.5 79.7 179.2zM104.2 308c8.8 0.3 15.2-3.5 19.5-11 5-8.6 7.5-18.1 9.5-27.7 0.4-1.8-0.4-2.2-2.1-2.3 -2.7-0.1-5.4-0.4-8.1-0.9 -5.2-1.1-6.4-3.8-4.1-8.7 2.8-5.9 7.6-9.8 13.1-12.8 1.1-0.6 2.5-1 2.6-2.6 0.2-3.9 0-7.7-1.4-11.4 -0.4-0.9-0.8-2.1-2-1.4 -3.9 2.3-8.2 4.1-9.7 9.2 -7.3 24.3-18.5 46.4-36.7 64.5 -1.6 1.6-0.8 2 0.8 2.5C91.8 306.9 97.9 307.8 104.2 308zM130.7 142.1c-0.6 4.1 1.3 5.4 5.1 4.6 6.6-1.3 12.9-3.2 18.5-7 10.9-7.4 19.2-17.4 26.5-28.1 1-1.4 1.7-3.1 1.9-4.8 0.5-3.2-0.6-5.3-4.3-5.2 -3 0-5.7 1-8.3 2.2 -13.4 6.3-27.3 11.3-42 14.1 -2.1 0.4-2.3 1.2-1 2.7 4.8 5.3 6.4 11.3 3.9 18.2C130.9 139.8 130.9 141 130.7 142.1zM38 278.7c0.4-1.7 0.7-2.6 0.9-3.5 1.3-6.5 2.6-13 4.6-19.4 1.4-4.2 2.9-7.9 8.4-7.7 1.1 0.1 2.4-0.8 3.3-1.5 7.5-6.4 13.3-14.2 18.5-22.4 1-1.5 1-3.1-0.3-4.6 -1.3-1.5-2.6-0.7-4-0.1 -8.6 4.1-17.3 8.4-26.6 10.6 -8.3 1.9-11.3 7.2-12.6 14.6 -0.2 1.1-0.3 2.3-0.5 3.4C28.7 259 32.2 268.7 38 278.7zM102.7 239.4c-0.2-1.8-0.3-3.2-1.8-3.5 -2.1-0.4-4.2-0.1-5.8 1.6 -3.8 4.3-7.3 8.8-11.4 12.8 -9.8 9.7-19 20.2-32.4 25.4 -2.8 1.1-5 3.1-7 5.5 -1.3 1.6-1.3 2.6 0.5 3.8 5.2 3.4 10.4 6.8 15.6 10.3 2.2 1.5 3.1 1 3.8-1.4 2.6-9.5 7.9-17.2 15.5-23.5 8.8-7.3 15.4-16.5 21.1-26.4C101.6 242.4 102.2 240.7 102.7 239.4zM64.3 154.6c0 4.7 0 4.7 4.4 3.2 5.6-1.9 11.2-4.2 17-5.6 6.1-1.5 10.4-5.3 14.4-9.6 1.7-1.8 4-4.1 1.7-6.7 -3-3.4-6.6-7.9-11.5-6.3 -7.6 2.4-14.5 6.6-21.2 10.9 -4 2.6-7.3 5.2-4.8 10.7C64.7 152.1 64.3 153.5 64.3 154.6zM184.1 178.2c-0.3-0.6-0.5-1.1-0.8-1.6 -0.6 0.3-1.3 0.5-1.8 0.9 -11.1 9-21.7 18.5-31.1 29.4 -4.2 4.9-6.4 9.3-2.7 15.5 1.5 2.5 1.9 2.9 3.9 0.8 12-12.2 21.6-26.2 30.7-40.6C183.1 181.3 183.5 179.7 184.1 178.2zM124.8 220.6c0-1.6-1-2.5-2.1-3.3 -4.5-3.4-9.9-4.5-15.4-5.6 -4.5-0.9-7.1-0.5-4.7 5 0.3 0.6 0.2 1.4 0.1 2.1 -0.4 2.4 0.6 3.3 3 3.3 3.7-0.1 6.8 1.5 9.7 3.4 1.2 0.8 2.1 2.6 4 1.2C122 225.1 124.3 223.5 124.8 220.6z"/>
</svg>